<svg width="512" height="512" viewBox="0 0 512 512" fill="none" xmlns="http://www.w3.org/2000/svg">
<path d="M230.4 153.6V281.6H231.936L295.424 344.832L331.52 308.736L281.6 258.816V153.6H230.4Z" fill="white"/>
<path d="M256 25.6C215.993 25.7285 176.709 36.2722 142.014 56.1935C107.319 76.1148 78.41 104.727 58.1312 139.214C37.8523 173.701 26.9031 212.874 26.3611 252.877C25.8191 292.881 35.703 332.336 55.0401 367.36L12.8 409.6H153.6V268.8L92.672 329.728C76.756 294.469 72.6772 255.006 81.045 217.237C89.4129 179.469 109.778 145.422 139.097 120.185C168.416 94.9478 205.115 79.8762 243.709 77.2222C282.302 74.5683 320.718 84.4745 353.216 105.46C385.714 126.446 410.548 157.385 424.007 193.653C437.466 229.921 438.827 269.571 427.888 306.676C416.948 343.782 394.294 376.351 363.313 399.517C332.331 422.683 294.685 435.201 256 435.2V486.4C317.106 486.4 375.709 462.126 418.917 418.917C462.126 375.709 486.4 317.106 486.4 256C486.4 194.894 462.126 136.291 418.917 93.0826C375.709 49.8742 317.106 25.6 256 25.6Z" fill="white"/>
</svg>
