<svg width="64" height="64" viewBox="0 0 64 64" fill="none" xmlns="http://www.w3.org/2000/svg">
<path fill-rule="evenodd" clip-rule="evenodd" d="M36.6884 33.7059H26.4934V15.0533H36.6884V33.7059ZM26.4934 13.7816H36.6884V11.6591C36.6884 10.8519 36.4706 10.2267 36.035 9.78353C35.5993 9.34036 34.9631 9.11877 34.1263 9.11877H29.0337C28.1999 9.11877 27.5681 9.34036 27.1382 9.78353C26.7083 10.2267 26.4934 10.8519 26.4934 11.6591V13.7816Z" fill="black"/>
<path fill-rule="evenodd" clip-rule="evenodd" d="M36.6884 30.3134H26.4934V48.966H36.6884V30.3134ZM26.4934 50.2377H36.6884V52.3602C36.6884 53.1675 36.4706 53.7927 36.035 54.2358C35.5993 54.679 34.9631 54.9006 34.1263 54.9006H29.0337C28.1999 54.9006 27.5681 54.679 27.1382 54.2358C26.7083 53.7927 26.4934 53.1675 26.4934 52.3602V50.2377Z" fill="black"/>
<path fill-rule="evenodd" clip-rule="evenodd" d="M13.5818 36.7725V20.5639H22.5723V36.7725H13.5818ZM22.5723 19.2907L13.5818 19.2922V18.0175C13.5818 17.2103 13.8004 16.5851 14.2376 16.1419C14.6748 15.6988 15.303 15.4772 16.1222 15.4772H20.032C20.8512 15.4772 21.4793 15.6988 21.9165 16.1419C22.3537 16.5851 22.5723 17.2103 22.5723 18.0175V19.2907Z" fill="black"/>
<path fill-rule="evenodd" clip-rule="evenodd" d="M13.5818 33.7047V49.9133H22.5723V33.7047H13.5818ZM22.5723 51.1865L13.5818 51.185V52.4597C13.5818 53.2669 13.8004 53.8921 14.2376 54.3353C14.6748 54.7785 15.303 55.0001 16.1222 55.0001H20.032C20.8512 55.0001 21.4793 54.7785 21.9165 54.3353C22.3537 53.8921 22.5723 53.2669 22.5723 52.4597V51.1865Z" fill="black"/>
<path fill-rule="evenodd" clip-rule="evenodd" d="M43.1746 36.0427L40.3733 20.1558L47.6638 18.8702L50.4651 34.7572L43.1746 36.0427ZM47.4437 17.6223L40.1535 18.9093L39.9332 17.6599C39.7937 16.8687 39.8629 16.2246 40.1409 15.7277C40.4188 15.2308 40.8899 14.9238 41.5542 14.8067L44.7247 14.2477C45.3889 14.1305 45.9366 14.2579 46.3677 14.6298C46.7989 15.0016 47.0842 15.5832 47.2237 16.3744L47.4437 17.6223Z" fill="black"/>
<path fill-rule="evenodd" clip-rule="evenodd" d="M42.8802 34.3729L45.6815 50.2599L52.972 48.9744L50.1706 33.0874L42.8802 34.3729ZM53.192 50.2223L45.9013 51.5063L46.1216 52.7557C46.2611 53.547 46.5464 54.1285 46.9775 54.5004C47.4087 54.8722 47.9563 54.9996 48.6206 54.8825L51.7911 54.3234C52.4554 54.2063 52.9265 53.8993 53.2044 53.4024C53.4823 52.9055 53.5516 52.2615 53.412 51.4702L53.192 50.2223Z" fill="black"/>
</svg>
