<svg width="64" height="64" viewBox="0 0 64 64" fill="none" xmlns="http://www.w3.org/2000/svg">
<path d="M51.2797 36.5391C51.2786 36.5383 51.277 36.5372 51.2763 36.5364L48.2417 34.348C48.3552 33.5652 48.4125 32.7782 48.4125 32C48.4125 31.2222 48.3552 30.4351 48.2414 29.6519L51.2797 27.461C52.6906 26.4356 53.0955 24.5299 52.2245 23.0327L49.8818 18.9651C49.0073 17.461 47.1529 16.8623 45.5659 17.5741L42.1546 19.1133C40.9137 18.1322 39.5502 17.3436 38.0866 16.7602L37.708 13.0341C37.5277 11.3039 36.0824 10 34.3456 10H29.6541C27.9173 10 26.4721 11.3039 26.2914 13.0369L25.9131 16.7602C24.4491 17.3436 23.086 18.1321 21.8451 19.1133L18.4312 17.5725C16.8469 16.8627 14.9925 17.4609 14.1156 18.9688L11.778 23.0284C10.9046 24.5302 11.3096 26.4359 12.7239 27.464L15.7584 29.6523C15.645 30.4351 15.5877 31.2222 15.5877 32C15.5877 32.7778 15.645 33.5648 15.7588 34.348L12.7205 36.539C11.3096 37.5644 10.9047 39.4701 11.7757 40.9673L14.1183 45.0349C14.9925 46.539 16.8466 47.1376 18.4343 46.4259L21.8456 44.8867C23.0865 45.8678 24.45 46.6564 25.9136 47.2397L26.2922 50.9658C26.4725 52.6961 27.9178 54 29.6546 54H34.3461C36.0829 54 37.5281 52.6961 37.7088 50.9631L38.087 47.2397C39.5511 46.6564 40.9141 45.8679 42.1551 44.8867L45.569 46.4275C47.1525 47.1366 49.0073 46.5387 49.8845 45.0312L52.2222 40.972C53.0956 39.4702 52.6906 37.5644 51.2797 36.5391ZM50.2191 39.812L47.8815 43.8716C47.6037 44.3492 47.0161 44.5395 46.5183 44.3163L42.4495 42.4803C42.038 42.295 41.5566 42.3649 41.2159 42.6602C39.8589 43.8358 38.3154 44.7283 36.6291 45.3135C36.2035 45.461 35.9025 45.8419 35.857 46.2896L35.4066 50.7259C35.3493 51.2726 34.8935 51.6856 34.346 51.6856L29.6541 51.686C29.1066 51.686 28.6508 51.273 28.5939 50.7289L28.1431 46.29C28.0976 45.8422 27.7966 45.4613 27.371 45.3138C25.6847 44.7285 24.1416 43.8361 22.7842 42.6605C22.5699 42.4745 22.2994 42.3778 22.0263 42.3778C21.8654 42.3778 21.7031 42.4118 21.5502 42.4806L17.4842 44.3152C16.9833 44.5406 16.3957 44.3492 16.121 43.8758L13.7783 39.8078C13.504 39.3364 13.6343 38.7362 14.0775 38.4137L17.6954 35.8051C18.0603 35.5423 18.2394 35.0919 18.155 34.6499C17.9873 33.7678 17.9021 32.8768 17.9021 32C17.9021 31.1236 17.9873 30.2323 18.1554 29.3501C18.2398 28.9081 18.0602 28.4577 17.6958 28.1949L14.0817 25.5889C13.6347 25.2638 13.5044 24.6636 13.7814 24.1876L16.1191 20.128C16.3972 19.6508 16.9852 19.461 17.4822 19.6833L21.551 21.5194C21.9625 21.7043 22.4439 21.6347 22.7846 21.3394C24.1417 20.1638 25.6851 19.2714 27.3714 18.6861C27.797 18.5387 28.098 18.1578 28.1435 17.71L28.5939 13.2738C28.6512 12.7271 29.107 12.3141 29.6545 12.3141H34.346C34.8935 12.3141 35.3493 12.7271 35.4062 13.2711L35.857 17.7101C35.9025 18.1578 36.2035 18.5387 36.6291 18.6862C38.3154 19.2715 39.8586 20.1639 41.2159 21.3395C41.5571 21.6348 42.0377 21.7043 42.4495 21.5194L46.5155 19.6848C47.0168 19.4602 47.6032 19.6508 47.8787 20.1242L50.2214 24.1922C50.4957 24.6637 50.3654 25.2638 49.9223 25.5863L46.3043 28.1949C45.9395 28.4577 45.7603 28.9082 45.8447 29.3501C46.0128 30.2323 46.098 31.1236 46.098 32C46.098 32.8764 46.0128 33.7677 45.8447 34.6499C45.7603 35.0919 45.9399 35.5423 46.3043 35.8051L49.9208 38.4122C50.3662 38.7381 50.4954 39.3372 50.2191 39.812Z" fill="black"/>
<path d="M31.9997 23.1508C27.1202 23.1508 23.1505 27.1203 23.1505 32C23.1509 36.8795 27.1203 40.849 31.9997 40.849C36.8791 40.849 40.8489 36.8795 40.8489 31.9998C40.8489 27.1203 36.8791 23.1508 31.9997 23.1508ZM31.9997 38.5352C28.3967 38.5352 25.4649 35.6034 25.4649 32C25.4653 28.397 28.3968 25.4652 31.9997 25.4652C35.6032 25.4652 38.5345 28.3971 38.5345 32C38.5345 35.6035 35.6031 38.5352 31.9997 38.5352Z" fill="black"/>
<path fill-rule="evenodd" clip-rule="evenodd" d="M50.2191 39.812L47.8815 43.8716C47.6037 44.3492 47.0161 44.5395 46.5183 44.3163L42.4495 42.4803C42.038 42.295 41.5566 42.3649 41.2159 42.6602C39.8589 43.8358 38.3154 44.7283 36.6291 45.3135C36.2035 45.461 35.9025 45.8419 35.857 46.2896L35.4066 50.7259C35.3493 51.2726 34.8935 51.6856 34.346 51.6856L29.6541 51.686C29.1066 51.686 28.6508 51.273 28.5939 50.7289L28.1431 46.29C28.0976 45.8422 27.7966 45.4613 27.371 45.3138C25.6847 44.7285 24.1416 43.8361 22.7842 42.6605C22.5699 42.4745 22.2994 42.3778 22.0263 42.3778C21.8654 42.3778 21.7031 42.4118 21.5502 42.4806L17.4842 44.3152C16.9833 44.5406 16.3957 44.3492 16.121 43.8758L13.7783 39.8078C13.504 39.3364 13.6343 38.7362 14.0775 38.4137L17.6954 35.8051C18.0603 35.5423 18.2394 35.0919 18.155 34.6499C17.9873 33.7678 17.9021 32.8768 17.9021 32C17.9021 31.1236 17.9873 30.2323 18.1554 29.3501C18.2398 28.9081 18.0602 28.4577 17.6958 28.1949L14.0817 25.5889C13.6347 25.2638 13.5044 24.6636 13.7814 24.1876L16.1191 20.128C16.3972 19.6508 16.9852 19.461 17.4822 19.6833L21.551 21.5194C21.9625 21.7043 22.4439 21.6347 22.7846 21.3394C24.1417 20.1638 25.6851 19.2714 27.3714 18.6861C27.797 18.5387 28.098 18.1578 28.1435 17.71L28.5939 13.2738C28.6512 12.7271 29.107 12.3141 29.6545 12.3141H34.346C34.8935 12.3141 35.3493 12.7271 35.4062 13.2711L35.857 17.7101C35.9025 18.1578 36.2035 18.5387 36.6291 18.6862C38.3154 19.2715 39.8586 20.1639 41.2159 21.3395C41.5571 21.6348 42.0377 21.7043 42.4495 21.5194L46.5155 19.6848C47.0168 19.4602 47.6032 19.6508 47.8787 20.1242L50.2214 24.1922C50.4957 24.6637 50.3654 25.2638 49.9223 25.5863L46.3043 28.1949C45.9395 28.4577 45.7603 28.9082 45.8447 29.3501C46.0128 30.2323 46.098 31.1236 46.098 32C46.098 32.8764 46.0128 33.7677 45.8447 34.6499C45.7603 35.0919 45.9399 35.5423 46.3043 35.8051L49.9208 38.4122C50.3662 38.7381 50.4954 39.3372 50.2191 39.812ZM23.1505 32C23.1505 27.1203 27.1202 23.1508 31.9997 23.1508C36.8791 23.1508 40.8489 27.1203 40.8489 31.9998C40.8489 36.8795 36.8791 40.849 31.9997 40.849C27.1203 40.849 23.1509 36.8795 23.1505 32Z" fill="black"/>
</svg>
