<svg width="64" height="64" viewBox="0 0 64 64" fill="none" xmlns="http://www.w3.org/2000/svg">
<path d="M52.7793 14.0064H11.5032C10.6736 14.0064 10.0002 13.333 10.0002 12.5035C10.0002 11.6739 10.6736 11.0006 11.5032 11.0006L52.7793 11C53.6089 11 54.2822 11.6734 54.2822 12.5029C54.2822 13.3331 53.6088 14.0064 52.7793 14.0064V14.0064Z" fill="black"/>
<path d="M35.9353 54.3972H11.5029C10.6733 54.3972 10 53.7238 10 52.8943C10 52.0647 10.6734 51.3914 11.5029 51.3914H35.9353C36.7649 51.3914 37.4382 52.0647 37.4382 52.8943C37.4382 53.7238 36.7654 54.3972 35.9353 54.3972Z" fill="black"/>
<path d="M10.0002 25.967C10.0002 26.7966 10.6736 27.47 11.5032 27.47H27.9855C28.2958 27.053 28.6376 26.6577 29.0095 26.2857C29.7351 25.5599 30.5493 24.9503 31.4397 24.4641H11.5032C10.6736 24.4641 10.0002 25.1375 10.0002 25.967Z" fill="black"/>
<path d="M20.8537 40.9336H11.5037C10.6741 40.9336 10.0007 40.2602 10.0007 39.4307C10.0007 38.6011 10.6741 37.9277 11.5037 37.9277H20.8537C21.6833 37.9277 22.3566 38.6011 22.3566 39.4307C22.3566 40.2602 21.6843 40.9336 20.8537 40.9336Z" fill="black"/>
<path d="M55.5868 51.2522L55.5868 51.2521L47.4128 43.0813C48.7953 41.3147 49.5511 39.1366 49.5511 36.8893C49.5511 31.3431 45.0403 26.833 39.4982 26.833C38.1441 26.833 36.828 27.0982 35.5882 27.6237L35.5881 27.6237C34.3906 28.1319 33.3155 28.8562 32.3928 29.7791C31.4703 30.7019 30.7438 31.7773 30.2357 32.9755L30.2357 32.9755C29.7104 34.2155 29.4429 35.532 29.4429 36.8869C29.4429 42.433 33.9537 46.9432 39.4958 46.9432C41.7447 46.9432 43.9198 46.1871 45.6857 44.8041L53.8545 52.9748C54.0858 53.2062 54.3934 53.333 54.7182 53.333C55.0441 53.333 55.352 53.2071 55.5816 52.9751C56.0629 52.501 56.0619 51.7275 55.5868 51.2522ZM47.1103 36.8867C47.1103 41.0868 43.6945 44.5017 39.498 44.5017C35.2995 44.5017 31.8857 41.0849 31.8857 36.8867C31.8857 32.689 35.3015 29.2717 39.498 29.2717C43.6941 29.2717 47.1103 32.6886 47.1103 36.8867Z" fill="black" stroke="black" stroke-width="0.5"/>
</svg>
