<svg width="64" height="64" viewBox="0 0 64 64" fill="none" xmlns="http://www.w3.org/2000/svg">
<path d="M53.902 14.08H10.0977V16.0711H53.902V14.08Z" fill="black"/>
<path d="M53.902 32H10.0977V33.9911H53.902V32Z" fill="black"/>
<path d="M53.902 47.929H10.0977V49.9201H53.902V47.929Z" fill="black"/>
<path fill-rule="evenodd" clip-rule="evenodd" d="M19.0576 20.0533C21.8068 20.0533 24.0353 17.8247 24.0353 15.0755C24.0353 12.3264 21.8068 10.0978 19.0576 10.0978C16.3084 10.0978 14.0798 12.3264 14.0798 15.0755C14.0798 17.8247 16.3084 20.0533 19.0576 20.0533Z" fill="black"/>
<path fill-rule="evenodd" clip-rule="evenodd" d="M19.0576 37.9734C21.8068 37.9734 24.0353 35.7449 24.0353 32.9957C24.0353 30.2464 21.8068 28.0179 19.0576 28.0179C16.3084 28.0179 14.0798 30.2464 14.0798 32.9957C14.0798 35.7449 16.3084 37.9734 19.0576 37.9734Z" fill="black"/>
<path fill-rule="evenodd" clip-rule="evenodd" d="M46.9332 37.9734C49.6823 37.9734 51.911 35.7449 51.911 32.9957C51.911 30.2464 49.6823 28.0179 46.9332 28.0179C44.184 28.0179 41.9553 30.2464 41.9553 32.9957C41.9553 35.7449 44.184 37.9734 46.9332 37.9734Z" fill="black"/>
<path fill-rule="evenodd" clip-rule="evenodd" d="M19.0576 53.9021C21.8068 53.9021 24.0353 51.6736 24.0353 48.9244C24.0353 46.1751 21.8068 43.9467 19.0576 43.9467C16.3084 43.9467 14.0798 46.1751 14.0798 48.9244C14.0798 51.6736 16.3084 53.9021 19.0576 53.9021Z" fill="black"/>
<path fill-rule="evenodd" clip-rule="evenodd" d="M32.9953 53.9021C35.7445 53.9021 37.9732 51.6736 37.9732 48.9244C37.9732 46.1751 35.7445 43.9467 32.9953 43.9467C30.2463 43.9467 28.0176 46.1751 28.0176 48.9244C28.0176 51.6736 30.2463 53.9021 32.9953 53.9021Z" fill="black"/>
<path fill-rule="evenodd" clip-rule="evenodd" d="M46.9332 53.9021C49.6823 53.9021 51.911 51.6736 51.911 48.9244C51.911 46.1751 49.6823 43.9467 46.9332 43.9467C44.184 43.9467 41.9553 46.1751 41.9553 48.9244C41.9553 51.6736 44.184 53.9021 46.9332 53.9021Z" fill="black"/>
<path fill-rule="evenodd" clip-rule="evenodd" d="M32.9953 20.0533C35.7445 20.0533 37.9732 17.8247 37.9732 15.0755C37.9732 12.3264 35.7445 10.0978 32.9953 10.0978C30.2463 10.0978 28.0176 12.3264 28.0176 15.0755C28.0176 17.8247 30.2463 20.0533 32.9953 20.0533Z" fill="black"/>
</svg>
