<svg width="64" height="64" viewBox="0 0 64 64" fill="none" xmlns="http://www.w3.org/2000/svg">
<path fill-rule="evenodd" clip-rule="evenodd" d="M8.00049 12.5C8.00049 10.8641 9.36442 9.50012 11.0004 9.50012L26.0003 9.50026C27.2502 9.50026 28.2963 10.2125 28.9329 10.9766C29.5233 11.6853 29.9081 12.458 30.2599 13.1647C30.2874 13.2199 30.3148 13.2748 30.3419 13.3291C30.7169 14.079 31.0697 14.7406 31.3702 15.1016C31.6711 15.4627 31.7503 15.4999 32.0001 15.4999H52.9998C54.6361 15.4999 56.0001 16.8639 56.0001 18.5002V51.5003C56.0001 53.1363 54.6361 54.5002 52.9998 54.5002H11.0004C9.36442 54.5002 8.00049 53.1363 8.00049 51.5003V18.5002V12.5ZM51.4997 18.5001H33.5001H12.3504C11.5194 18.5001 10.8507 19.1688 10.8507 19.9999L10.8503 26.0001M10.8503 26.0001V49.9999C10.8503 50.8309 11.5194 51.5 12.3504 51.5H51.4997C52.3308 51.5 52.9995 50.8309 52.9995 49.9999V19.9999C52.9995 19.1688 52.3308 18.5001 51.4997 18.5001" fill="black"/>
<path fill-rule="evenodd" clip-rule="evenodd" d="M24 27.5838C24 26.7066 24.7137 26.0003 25.6001 26.0003L35.2002 26L40 30.7498V32.3333H36.7998V35.4998H33.5999V38.6663H30.4001V41.8332H27.1998V44.9997H25.6001C24.7137 44.9997 24 44.2934 24 43.4162V27.5838ZM33.5994 41.8335L33.5999 38.6663L36.7992 38.6666V41.8335H33.5994ZM36.7992 41.8335H39.9995V43.4165C39.9995 44.2937 39.2858 45 38.3993 45H36.7992V41.8335ZM33.5994 41.8335L30.4001 41.8332L30.3996 45H33.5994V41.8335ZM36.7992 38.6666L36.7998 35.4998L39.9995 35.5001V38.6666H36.7992Z" fill="black"/>
</svg>
