<svg width="64" height="64" viewBox="0 0 64 64" fill="none" xmlns="http://www.w3.org/2000/svg">
<path d="M39.1345 24.3607L41.7502 21.745L44.3659 24.3607L41.7502 26.9764L39.1345 24.3607Z" fill="black"/>
<path d="M9.76318 53.731L38.0789 25.4153L40.6946 28.031L12.3789 56.3467L9.76318 53.731Z" fill="black"/>
<path d="M52.9319 36.8927C51.8029 36.6006 50.8079 35.9307 50.1128 34.9941C49.4178 34.0574 49.0642 32.9111 49.112 31.7453C49.1262 31.3649 48.852 31.0345 48.4753 30.9788C48.0986 30.9231 47.7403 31.1595 47.6442 31.5283C47.3521 32.6573 46.6817 33.6523 45.745 34.3474C44.8083 35.0424 43.662 35.396 42.4963 35.3482C42.1159 35.334 41.7855 35.6082 41.7298 35.9849C41.6741 36.3616 41.911 36.7199 42.2793 36.816C43.4083 37.1081 44.4033 37.7785 45.0983 38.7152C45.7934 39.6519 46.147 40.7982 46.0991 41.9639C46.085 42.3443 46.3592 42.6742 46.7359 42.7304C47.1126 42.7861 47.4708 42.5492 47.5675 42.1809C47.8591 41.0514 48.5294 40.0564 49.4661 39.3613C50.4028 38.6657 51.5491 38.3127 52.7149 38.3605C53.0952 38.3752 53.4257 38.101 53.4814 37.7243C53.5371 37.3476 53.3001 36.9893 52.9319 36.8927H52.9319Z" fill="black"/>
<path d="M53.0679 9.82651C52.385 10.3014 51.5596 10.5279 50.7301 10.4685C49.9 10.4091 49.1157 10.0671 48.5074 9.49921C48.2284 9.24074 47.7997 9.2339 47.5118 9.48293C47.2244 9.73195 47.1703 10.1575 47.3863 10.4706C47.8612 11.1536 48.0876 11.9789 48.0277 12.8085C47.9683 13.6385 47.6263 14.4229 47.059 15.0306C46.801 15.3101 46.7936 15.7388 47.0427 16.0262C47.2917 16.3136 47.7172 16.3682 48.0303 16.1523C48.7133 15.6774 49.5387 15.4509 50.3682 15.5103C51.1977 15.5702 51.9821 15.9122 52.5904 16.4796C52.8699 16.7375 53.2986 16.7444 53.5859 16.4959C53.8733 16.2468 53.9274 15.8213 53.712 15.5082C53.2371 14.8252 53.0107 13.9999 53.07 13.1703C53.1294 12.3403 53.4714 11.5559 54.0393 10.9481C54.2973 10.6687 54.3041 10.24 54.0551 9.9526C53.806 9.66523 53.381 9.61111 53.0679 9.82651V9.82651Z" fill="black"/>
<path d="M22.9029 12.6561C24.2961 13.4378 25.38 14.6735 25.9731 16.157C26.5667 17.6406 26.634 19.2829 26.1633 20.8101C26.0529 21.1742 26.2337 21.563 26.5836 21.7127C26.9334 21.8629 27.3395 21.7258 27.5271 21.3949C28.3088 20.0011 29.5444 18.9173 31.028 18.3242C32.5116 17.7305 34.1538 17.6638 35.6806 18.134C36.0447 18.2443 36.4334 18.0636 36.5837 17.7137C36.7334 17.3643 36.5963 16.9577 36.2653 16.7702C34.8721 15.9884 33.7882 14.7528 33.1946 13.2692C32.6015 11.7857 32.5342 10.1434 33.0044 8.61666C33.1153 8.25259 32.934 7.86382 32.5847 7.71358C32.2348 7.56385 31.8282 7.70097 31.6411 8.03195C30.8594 9.42514 29.6238 10.509 28.1402 11.1026C26.6566 11.6958 25.0144 11.763 23.4876 11.2928C23.1236 11.182 22.7343 11.3632 22.5846 11.7126C22.4348 12.0625 22.5719 12.4686 22.9029 12.6561L22.9029 12.6561Z" fill="black"/>
</svg>
