<svg width="96" height="96" viewBox="0 0 96 96" fill="none" xmlns="http://www.w3.org/2000/svg">
<path d="M70.5004 12.771L59.1877 24.084C57.9607 29.751 66.1775 38.064 71.9133 36.81L83.226 25.5C83.742 27.252 84 29.064 84 30.876C84 35.682 82.1791 40.482 78.5102 44.154C74.4573 48.207 69.0184 50.028 63.7176 49.617C60.9186 49.401 58.1617 50.424 56.1758 52.41L27.1906 81.396C25.4566 83.13 23.1797 84 20.8998 84C15.9169 84 11.897 79.908 12.002 74.91C12.05 72.699 12.92 70.5 14.6059 68.811L43.5911 39.822C45.5771 37.839 46.597 35.079 46.3841 32.28C45.9731 26.979 47.797 21.54 51.8439 17.49C55.5188 13.818 60.3187 12 65.1275 12C66.9365 12 68.7484 12.258 70.5004 12.771V12.771ZM18.0018 75C18.0018 76.659 19.3428 78 21.0018 78C22.6607 78 24.0017 76.656 24.0017 75C24.0017 73.344 22.6607 72 21.0018 72C19.3428 72 18.0018 73.341 18.0018 75Z" fill="white"/>
</svg>
